<?xml version="1.0" standalone="no"?>
<!DOCTYPE svg PUBLIC "-//W3C//DTD SVG 20010904//EN"
 "http://www.w3.org/TR/2001/REC-SVG-20010904/DTD/svg10.dtd">
<svg version="1.0" xmlns="http://www.w3.org/2000/svg"
 width="128.000000pt" height="128.000000pt" viewBox="0 0 128.000000 128.000000"
 preserveAspectRatio="xMidYMid meet">
<metadata>
Created by potrace 1.11, written by Peter Selinger 2001-2013
</metadata>
<g transform="translate(0.000000,128.000000) scale(0.100000,-0.100000)"
fill="#000000" stroke="none">
<path d="M490 1234 c-218 -59 -389 -235 -440 -454 -18 -75 -16 -212 4 -288 28
-112 74 -190 161 -278 61 -61 98 -90 155 -118 343 -167 749 6 863 369 33 107
30 263 -7 370 -69 200 -229 349 -431 400 -75 19 -232 18 -305 -1z m295 -29
c180 -46 340 -190 405 -362 65 -173 40 -370 -66 -526 -76 -111 -170 -182 -304
-228 -83 -28 -247 -32 -327 -6 -207 64 -356 217 -408 418 -24 90 -16 251 15
334 70 184 226 326 406 369 79 19 206 19 279 1z"/>
<path d="M510 1174 c-193 -51 -345 -203 -395 -394 -24 -90 -16 -242 15 -325
143 -377 622 -484 904 -201 133 133 191 336 147 516 -36 144 -149 291 -277
358 -114 59 -273 78 -394 46z m226 -194 c103 0 136 -12 70 -24 -19 -4 -38 -14
-42 -24 -4 -9 -11 -125 -14 -257 -4 -195 -8 -246 -22 -270 -35 -64 -102 -105
-173 -105 -38 0 -52 5 -76 29 -33 33 -37 66 -12 93 21 23 45 23 67 -1 14 -16
15 -23 6 -41 -16 -30 -6 -50 25 -50 78 0 85 28 85 336 0 277 0 279 -61 291
-16 3 -29 9 -29 13 0 15 16 21 44 16 16 -3 75 -6 132 -6z"/>
</g>
</svg>
